
<svg xmlns="http://www.w3.org/2000/svg" xmlns:xlink="http://www.w3.org/1999/xlink" width="390" zoomAndPan="magnify" viewBox="0 0 292.5 44.249999" height="59" preserveAspectRatio="xMidYMid meet" version="1.0"><defs><g/><clipPath id="3bea3982c1"><path d="M 54.046875 8 L 88 8 L 88 42.039062 L 54.046875 42.039062 Z M 54.046875 8 " clip-rule="nonzero"/></clipPath></defs><path fill="#ffffff" d="M 96.125 3.152344 C 95.789062 3.480469 95.417969 3.78125 95.035156 4.074219 C 94.828125 4.234375 94.71875 4.496094 94.753906 4.753906 L 94.855469 5.554688 L 94.867188 5.558594 C 95.125 5.335938 95.53125 5.816406 95.441406 6.074219 C 95.378906 6.253906 95.121094 6.402344 94.980469 6.519531 C 94.980469 6.523438 94.980469 6.523438 94.980469 6.527344 L 95.082031 7.324219 C 95.082031 7.324219 95.089844 7.328125 95.089844 7.328125 C 95.332031 7.1875 95.601562 7.59375 95.582031 7.800781 C 95.566406 8.023438 95.359375 8.148438 95.207031 8.28125 C 95.207031 8.28125 95.207031 8.285156 95.207031 8.285156 L 95.339844 9.335938 C 95.351562 9.429688 95.308594 9.5625 95.242188 9.628906 L 94.992188 9.882812 C 94.925781 9.949219 94.832031 9.9375 94.785156 9.855469 L 92.582031 6.140625 C 92.542969 6.078125 92.457031 6.0625 92.398438 6.105469 C 91.65625 6.679688 90.960938 7.21875 90.488281 7.582031 C 90.464844 7.601562 90.449219 7.628906 90.453125 7.660156 C 90.464844 7.929688 90.480469 8.199219 90.492188 8.46875 C 90.503906 8.671875 90.519531 8.875 90.523438 9.074219 C 90.527344 9.257812 90.542969 9.46875 90.402344 9.605469 C 90.277344 9.726562 90.140625 9.832031 90.011719 9.941406 C 89.910156 10.027344 89.796875 10.105469 89.660156 10.039062 C 89.527344 9.972656 89.488281 9.777344 89.4375 9.648438 C 89.367188 9.46875 89.296875 9.289062 89.226562 9.109375 C 89.132812 8.863281 89.039062 8.617188 88.941406 8.371094 C 88.929688 8.335938 88.886719 8.320312 88.851562 8.34375 C 88.738281 8.414062 88.625 8.492188 88.511719 8.570312 C 88.414062 8.632812 88.300781 8.722656 88.183594 8.75 C 88.039062 8.78125 87.859375 8.65625 87.90625 8.492188 C 87.9375 8.382812 88.039062 8.316406 88.113281 8.234375 C 88.179688 8.15625 88.25 8.078125 88.316406 8 C 88.34375 7.96875 88.371094 7.9375 88.394531 7.90625 C 88.421875 7.878906 88.414062 7.835938 88.378906 7.816406 C 88.21875 7.726562 88.054688 7.632812 87.894531 7.542969 C 87.761719 7.46875 87.632812 7.394531 87.503906 7.324219 C 87.363281 7.246094 87.207031 7.171875 87.078125 7.078125 C 86.945312 6.984375 86.9375 6.792969 87.054688 6.683594 C 87.164062 6.585938 87.28125 6.488281 87.390625 6.386719 C 87.460938 6.324219 87.535156 6.265625 87.621094 6.226562 C 87.71875 6.183594 87.804688 6.195312 87.910156 6.207031 C 88.140625 6.234375 88.359375 6.289062 88.585938 6.335938 C 88.804688 6.378906 89.023438 6.421875 89.246094 6.464844 C 89.273438 6.472656 89.304688 6.460938 89.324219 6.441406 C 89.746094 6.03125 90.402344 5.394531 91.109375 4.707031 C 91.160156 4.65625 91.15625 4.574219 91.097656 4.527344 L 88.054688 2.019531 C 87.980469 1.960938 87.984375 1.867188 88.0625 1.808594 L 88.4375 1.539062 C 88.515625 1.484375 88.652344 1.457031 88.746094 1.484375 L 89.503906 1.691406 C 89.503906 1.691406 89.507812 1.691406 89.511719 1.691406 C 89.574219 1.636719 89.632812 1.582031 89.695312 1.53125 C 89.789062 1.449219 89.894531 1.347656 90.023438 1.34375 C 90.253906 1.335938 90.597656 1.714844 90.4375 1.941406 C 90.433594 1.945312 90.4375 1.949219 90.4375 1.949219 L 91.21875 2.164062 C 91.21875 2.164062 91.222656 2.164062 91.222656 2.164062 C 91.375 2.03125 91.53125 1.847656 91.746094 1.859375 C 91.949219 1.871094 92.316406 2.191406 92.148438 2.410156 C 92.148438 2.414062 92.148438 2.417969 92.152344 2.421875 L 92.765625 2.589844 C 93.019531 2.660156 93.289062 2.589844 93.476562 2.40625 C 94.007812 1.890625 94.546875 1.371094 95.164062 0.953125 C 95.65625 0.621094 96.621094 -0.00390625 97.238281 0.296875 C 98.28125 0.808594 96.578125 2.722656 96.128906 3.15625 Z M 96.125 3.152344 " fill-opacity="1" fill-rule="nonzero"/><g clip-path="url(#3bea3982c1)"><path fill="#ffffff" d="M 57.175781 42.335938 C 57.101562 42.335938 57.035156 42.292969 57.003906 42.226562 C 56.773438 41.730469 56.570312 41.277344 56.382812 40.839844 C 56.339844 40.746094 56.386719 40.636719 56.480469 40.59375 C 56.578125 40.550781 56.6875 40.59375 56.730469 40.691406 C 56.917969 41.125 57.121094 41.574219 57.347656 42.066406 C 57.390625 42.164062 57.347656 42.273438 57.253906 42.316406 C 57.226562 42.328125 57.199219 42.335938 57.175781 42.335938 Z M 55.980469 39.558594 C 55.902344 39.558594 55.832031 39.511719 55.804688 39.4375 C 55.613281 38.949219 55.4375 38.46875 55.28125 38.007812 C 55.246094 37.910156 55.300781 37.804688 55.398438 37.769531 C 55.5 37.738281 55.605469 37.789062 55.636719 37.890625 C 55.792969 38.34375 55.96875 38.820312 56.15625 39.300781 C 56.195312 39.398438 56.144531 39.507812 56.046875 39.546875 C 56.027344 39.554688 56 39.558594 55.980469 39.558594 Z M 68.84375 37.097656 L 68.8125 37.097656 C 68.707031 37.097656 68.621094 37.011719 68.621094 36.90625 C 68.621094 36.804688 68.707031 36.71875 68.8125 36.71875 L 68.839844 36.71875 C 69.308594 36.71875 69.777344 36.644531 70.242188 36.496094 C 70.339844 36.464844 70.445312 36.519531 70.476562 36.621094 C 70.511719 36.71875 70.453125 36.824219 70.355469 36.855469 C 69.855469 37.015625 69.34375 37.097656 68.839844 37.097656 Z M 67.328125 36.847656 C 67.308594 36.847656 67.289062 36.84375 67.269531 36.839844 C 66.785156 36.675781 66.316406 36.441406 65.875 36.140625 C 65.789062 36.082031 65.765625 35.964844 65.824219 35.878906 C 65.882812 35.792969 66 35.769531 66.085938 35.828125 C 66.5 36.109375 66.9375 36.328125 67.386719 36.480469 C 67.488281 36.511719 67.539062 36.621094 67.507812 36.71875 C 67.480469 36.796875 67.40625 36.847656 67.328125 36.847656 Z M 55.011719 36.695312 C 54.929688 36.695312 54.851562 36.636719 54.832031 36.554688 C 54.691406 36.050781 54.570312 35.554688 54.46875 35.074219 C 54.449219 34.96875 54.515625 34.871094 54.617188 34.847656 C 54.71875 34.828125 54.820312 34.894531 54.839844 34.996094 C 54.9375 35.46875 55.058594 35.957031 55.195312 36.453125 C 55.222656 36.554688 55.164062 36.65625 55.0625 36.6875 C 55.042969 36.691406 55.027344 36.691406 55.011719 36.691406 Z M 71.65625 36.210938 C 71.597656 36.210938 71.535156 36.183594 71.5 36.128906 C 71.441406 36.042969 71.464844 35.925781 71.554688 35.867188 C 71.957031 35.601562 72.328125 35.28125 72.664062 34.914062 C 72.734375 34.839844 72.855469 34.832031 72.929688 34.90625 C 73.007812 34.976562 73.011719 35.09375 72.941406 35.171875 C 72.585938 35.558594 72.191406 35.898438 71.761719 36.183594 C 71.730469 36.203125 71.691406 36.214844 71.65625 36.214844 Z M 64.847656 35.179688 C 64.796875 35.179688 64.746094 35.15625 64.707031 35.117188 C 64.359375 34.726562 64.0625 34.300781 63.816406 33.84375 C 63.765625 33.753906 63.800781 33.636719 63.894531 33.585938 C 63.984375 33.539062 64.101562 33.574219 64.148438 33.664062 C 64.382812 34.09375 64.664062 34.496094 64.988281 34.863281 C 65.058594 34.941406 65.050781 35.0625 64.972656 35.128906 C 64.9375 35.160156 64.890625 35.179688 64.847656 35.179688 Z M 73.683594 34.007812 C 73.65625 34.007812 73.621094 34 73.59375 33.984375 C 73.503906 33.933594 73.46875 33.820312 73.519531 33.726562 C 73.691406 33.414062 73.832031 33.09375 73.941406 32.761719 C 73.984375 32.632812 74.023438 32.5 74.058594 32.371094 C 74.085938 32.269531 74.191406 32.207031 74.292969 32.234375 C 74.390625 32.261719 74.453125 32.363281 74.425781 32.464844 C 74.386719 32.605469 74.347656 32.746094 74.300781 32.882812 C 74.183594 33.234375 74.03125 33.578125 73.851562 33.910156 C 73.816406 33.972656 73.75 34.007812 73.683594 34.007812 Z M 54.410156 33.734375 C 54.316406 33.734375 54.234375 33.664062 54.222656 33.566406 C 54.175781 33.195312 54.140625 32.824219 54.121094 32.457031 C 54.109375 32.320312 54.105469 32.183594 54.101562 32.042969 C 54.097656 31.941406 54.179688 31.851562 54.28125 31.847656 C 54.390625 31.847656 54.476562 31.929688 54.476562 32.03125 C 54.484375 32.167969 54.488281 32.300781 54.496094 32.4375 C 54.519531 32.792969 54.550781 33.15625 54.597656 33.523438 C 54.609375 33.625 54.535156 33.71875 54.433594 33.734375 C 54.425781 33.734375 54.417969 33.734375 54.40625 33.734375 Z M 63.433594 32.539062 C 63.351562 32.539062 63.273438 32.484375 63.25 32.398438 C 63.121094 31.910156 63.039062 31.398438 63.003906 30.871094 C 63 30.769531 63.078125 30.679688 63.183594 30.671875 C 63.285156 30.667969 63.375 30.746094 63.382812 30.847656 C 63.414062 31.347656 63.492188 31.839844 63.613281 32.304688 C 63.640625 32.402344 63.582031 32.507812 63.480469 32.535156 C 63.464844 32.539062 63.449219 32.542969 63.433594 32.542969 Z M 74.46875 31.113281 C 74.46875 31.113281 74.464844 31.113281 74.460938 31.113281 C 74.359375 31.109375 74.277344 31.019531 74.28125 30.917969 C 74.289062 30.800781 74.292969 30.679688 74.292969 30.558594 C 74.292969 30.195312 74.265625 29.820312 74.210938 29.445312 C 74.199219 29.339844 74.269531 29.246094 74.375 29.230469 C 74.476562 29.214844 74.570312 29.289062 74.585938 29.390625 C 74.640625 29.785156 74.667969 30.175781 74.667969 30.558594 C 74.667969 30.6875 74.664062 30.8125 74.660156 30.9375 C 74.65625 31.039062 74.570312 31.117188 74.472656 31.117188 Z M 54.320312 30.714844 C 54.320312 30.714844 54.3125 30.714844 54.304688 30.714844 C 54.203125 30.707031 54.125 30.617188 54.132812 30.515625 C 54.167969 30 54.234375 29.492188 54.324219 28.992188 C 54.34375 28.890625 54.441406 28.824219 54.546875 28.84375 C 54.648438 28.863281 54.714844 28.960938 54.695312 29.0625 C 54.609375 29.542969 54.542969 30.042969 54.507812 30.542969 C 54.5 30.640625 54.417969 30.714844 54.320312 30.714844 Z M 63.234375 29.539062 C 63.230469 29.539062 63.222656 29.539062 63.214844 29.535156 C 63.109375 29.523438 63.035156 29.433594 63.046875 29.328125 C 63.105469 28.828125 63.199219 28.320312 63.335938 27.816406 C 63.363281 27.714844 63.464844 27.65625 63.566406 27.683594 C 63.667969 27.710938 63.726562 27.8125 63.699219 27.914062 C 63.570312 28.398438 63.476562 28.890625 63.421875 29.371094 C 63.410156 29.46875 63.332031 29.539062 63.234375 29.539062 Z M 74.0625 28.132812 C 73.984375 28.132812 73.910156 28.082031 73.882812 28 C 73.738281 27.535156 73.554688 27.070312 73.335938 26.625 C 73.289062 26.53125 73.328125 26.417969 73.421875 26.371094 C 73.515625 26.324219 73.628906 26.363281 73.671875 26.457031 C 73.902344 26.921875 74.09375 27.402344 74.246094 27.886719 C 74.277344 27.988281 74.222656 28.09375 74.121094 28.125 C 74.101562 28.128906 74.082031 28.132812 74.0625 28.132812 Z M 54.871094 27.746094 C 54.851562 27.746094 54.832031 27.746094 54.816406 27.738281 C 54.714844 27.707031 54.660156 27.601562 54.691406 27.503906 C 54.84375 27.007812 55.027344 26.523438 55.238281 26.066406 C 55.28125 25.972656 55.390625 25.929688 55.488281 25.976562 C 55.582031 26.019531 55.625 26.132812 55.578125 26.226562 C 55.378906 26.667969 55.199219 27.136719 55.050781 27.617188 C 55.027344 27.695312 54.949219 27.75 54.871094 27.75 Z M 64.011719 26.625 C 63.988281 26.625 63.960938 26.621094 63.9375 26.609375 C 63.84375 26.570312 63.796875 26.460938 63.839844 26.363281 C 63.859375 26.3125 63.882812 26.261719 63.902344 26.210938 C 64.085938 25.796875 64.300781 25.386719 64.535156 24.992188 C 64.585938 24.902344 64.703125 24.875 64.792969 24.929688 C 64.882812 24.980469 64.914062 25.097656 64.859375 25.1875 C 64.628906 25.566406 64.425781 25.964844 64.25 26.367188 C 64.226562 26.414062 64.207031 26.464844 64.1875 26.511719 C 64.15625 26.585938 64.085938 26.625 64.011719 26.625 Z M 72.742188 25.425781 C 72.679688 25.425781 72.621094 25.398438 72.585938 25.34375 C 72.308594 24.9375 72 24.542969 71.664062 24.175781 C 71.597656 24.101562 71.601562 23.980469 71.679688 23.910156 C 71.757812 23.839844 71.875 23.847656 71.945312 23.921875 C 72.292969 24.300781 72.613281 24.707031 72.898438 25.128906 C 72.957031 25.214844 72.9375 25.332031 72.851562 25.390625 C 72.816406 25.414062 72.78125 25.421875 72.742188 25.421875 Z M 56.132812 25.011719 C 56.097656 25.011719 56.0625 25 56.03125 24.980469 C 55.941406 24.921875 55.917969 24.804688 55.976562 24.71875 C 56.257812 24.28125 56.570312 23.871094 56.910156 23.496094 C 56.980469 23.417969 57.101562 23.410156 57.179688 23.480469 C 57.253906 23.550781 57.261719 23.671875 57.191406 23.746094 C 56.867188 24.109375 56.5625 24.503906 56.292969 24.921875 C 56.257812 24.980469 56.195312 25.011719 56.132812 25.011719 Z M 65.5625 24.039062 C 65.519531 24.039062 65.476562 24.027344 65.441406 24 C 65.363281 23.933594 65.351562 23.8125 65.414062 23.734375 C 65.738281 23.332031 66.09375 22.953125 66.464844 22.609375 C 66.539062 22.535156 66.660156 22.542969 66.730469 22.617188 C 66.800781 22.695312 66.796875 22.8125 66.722656 22.886719 C 66.363281 23.21875 66.023438 23.582031 65.710938 23.972656 C 65.671875 24.015625 65.617188 24.042969 65.5625 24.042969 Z M 70.714844 23.195312 C 70.671875 23.195312 70.628906 23.179688 70.59375 23.148438 C 70.214844 22.832031 69.808594 22.539062 69.394531 22.277344 C 69.304688 22.21875 69.277344 22.105469 69.332031 22.015625 C 69.390625 21.925781 69.503906 21.898438 69.59375 21.957031 C 70.027344 22.226562 70.445312 22.53125 70.835938 22.859375 C 70.917969 22.925781 70.925781 23.046875 70.859375 23.125 C 70.824219 23.171875 70.769531 23.195312 70.714844 23.195312 Z M 58.152344 22.777344 C 58.097656 22.777344 58.042969 22.753906 58.003906 22.707031 C 57.941406 22.625 57.953125 22.503906 58.035156 22.441406 C 58.433594 22.125 58.867188 21.839844 59.320312 21.589844 C 59.414062 21.539062 59.527344 21.574219 59.578125 21.664062 C 59.628906 21.757812 59.59375 21.871094 59.503906 21.921875 C 59.066406 22.160156 58.652344 22.433594 58.269531 22.738281 C 58.234375 22.765625 58.195312 22.777344 58.152344 22.777344 Z M 67.773438 21.992188 C 67.714844 21.992188 67.65625 21.964844 67.617188 21.910156 C 67.558594 21.824219 67.582031 21.707031 67.667969 21.648438 C 67.746094 21.597656 67.820312 21.546875 67.898438 21.5 C 67.5 21.332031 67.09375 21.191406 66.6875 21.078125 C 66.585938 21.050781 66.527344 20.949219 66.554688 20.847656 C 66.582031 20.746094 66.6875 20.6875 66.789062 20.714844 C 67.277344 20.851562 67.765625 21.023438 68.234375 21.234375 C 68.253906 21.242188 68.269531 21.253906 68.285156 21.265625 C 68.523438 21.132812 68.769531 21.007812 69.015625 20.898438 C 69.109375 20.855469 69.222656 20.898438 69.265625 20.992188 C 69.308594 21.085938 69.265625 21.199219 69.167969 21.242188 C 68.730469 21.4375 68.292969 21.679688 67.878906 21.960938 C 67.847656 21.984375 67.808594 21.996094 67.773438 21.996094 Z M 60.789062 21.324219 C 60.710938 21.324219 60.640625 21.277344 60.613281 21.199219 C 60.578125 21.101562 60.628906 20.992188 60.726562 20.957031 C 61.207031 20.785156 61.707031 20.648438 62.210938 20.546875 C 62.3125 20.527344 62.410156 20.59375 62.433594 20.695312 C 62.453125 20.800781 62.386719 20.898438 62.28125 20.917969 C 61.796875 21.015625 61.316406 21.148438 60.855469 21.3125 C 60.832031 21.320312 60.8125 21.324219 60.789062 21.324219 Z M 65.257812 20.796875 C 65.25 20.796875 65.242188 20.796875 65.234375 20.796875 C 64.882812 20.757812 64.519531 20.734375 64.164062 20.734375 C 64.027344 20.734375 63.890625 20.738281 63.753906 20.746094 C 63.648438 20.75 63.5625 20.667969 63.558594 20.566406 C 63.554688 20.460938 63.632812 20.371094 63.738281 20.367188 C 63.878906 20.363281 64.019531 20.359375 64.160156 20.359375 L 64.164062 20.359375 C 64.535156 20.359375 64.910156 20.378906 65.277344 20.421875 C 65.378906 20.433594 65.453125 20.527344 65.441406 20.628906 C 65.433594 20.726562 65.351562 20.796875 65.257812 20.796875 Z M 70.523438 20.773438 C 70.4375 20.773438 70.359375 20.714844 70.339844 20.625 C 70.316406 20.523438 70.378906 20.421875 70.480469 20.398438 C 70.964844 20.285156 71.460938 20.222656 71.953125 20.207031 L 72.015625 20.207031 C 72.121094 20.203125 72.207031 20.285156 72.207031 20.390625 C 72.210938 20.492188 72.128906 20.582031 72.023438 20.582031 L 71.964844 20.582031 C 71.496094 20.597656 71.027344 20.660156 70.5625 20.769531 C 70.550781 20.769531 70.535156 20.773438 70.519531 20.773438 Z M 75.039062 20.75 L 75.035156 20.75 C 74.570312 20.746094 74.097656 20.703125 73.644531 20.664062 L 73.511719 20.652344 C 73.40625 20.644531 73.332031 20.554688 73.339844 20.449219 C 73.347656 20.347656 73.4375 20.269531 73.542969 20.277344 L 73.675781 20.289062 C 74.125 20.328125 74.589844 20.367188 75.039062 20.371094 C 75.140625 20.371094 75.226562 20.460938 75.226562 20.5625 C 75.226562 20.667969 75.140625 20.75 75.039062 20.75 Z M 76.539062 20.597656 C 76.453125 20.597656 76.375 20.539062 76.351562 20.453125 C 76.328125 20.351562 76.390625 20.25 76.492188 20.222656 C 76.953125 20.113281 77.410156 19.9375 77.855469 19.703125 C 77.949219 19.65625 78.0625 19.691406 78.113281 19.78125 C 78.160156 19.875 78.125 19.988281 78.035156 20.035156 C 77.5625 20.285156 77.074219 20.472656 76.582031 20.589844 C 76.566406 20.59375 76.550781 20.597656 76.539062 20.597656 Z M 79.199219 19.21875 C 79.144531 19.21875 79.089844 19.191406 79.050781 19.148438 C 78.984375 19.066406 78.996094 18.949219 79.078125 18.882812 C 79.4375 18.585938 79.796875 18.242188 80.148438 17.855469 C 80.21875 17.78125 80.339844 17.773438 80.417969 17.84375 C 80.492188 17.914062 80.5 18.035156 80.429688 18.113281 C 80.0625 18.511719 79.691406 18.867188 79.316406 19.175781 C 79.28125 19.203125 79.238281 19.21875 79.199219 19.21875 Z M 81.25 17.003906 C 81.207031 17.003906 81.167969 16.992188 81.136719 16.96875 C 81.050781 16.90625 81.035156 16.785156 81.097656 16.703125 C 81.378906 16.324219 81.65625 15.921875 81.945312 15.46875 C 82.003906 15.378906 82.121094 15.355469 82.207031 15.414062 C 82.296875 15.46875 82.320312 15.585938 82.265625 15.671875 C 81.96875 16.132812 81.6875 16.542969 81.398438 16.929688 C 81.363281 16.980469 81.304688 17.003906 81.25 17.003906 Z M 82.941406 14.5 C 82.90625 14.5 82.867188 14.488281 82.832031 14.464844 C 82.75 14.40625 82.726562 14.285156 82.789062 14.203125 C 83.082031 13.789062 83.378906 13.390625 83.703125 12.988281 C 83.769531 12.90625 83.886719 12.890625 83.96875 12.957031 C 84.050781 13.023438 84.066406 13.140625 84 13.222656 C 83.679688 13.621094 83.382812 14.015625 83.097656 14.421875 C 83.058594 14.472656 83 14.5 82.941406 14.5 Z M 84.828125 12.140625 C 84.785156 12.140625 84.738281 12.125 84.703125 12.089844 C 84.625 12.023438 84.617188 11.902344 84.6875 11.824219 C 85 11.472656 85.335938 11.105469 85.714844 10.710938 C 85.789062 10.632812 85.90625 10.628906 85.984375 10.703125 C 86.058594 10.773438 86.0625 10.894531 85.988281 10.96875 C 85.613281 11.363281 85.28125 11.726562 84.96875 12.074219 C 84.933594 12.117188 84.878906 12.140625 84.828125 12.140625 Z M 86.90625 9.945312 C 86.859375 9.945312 86.8125 9.925781 86.773438 9.890625 C 86.699219 9.816406 86.699219 9.695312 86.773438 9.621094 C 86.972656 9.421875 87.171875 9.222656 87.378906 9.015625 C 87.453125 8.941406 87.574219 8.941406 87.648438 9.015625 C 87.722656 9.089844 87.722656 9.207031 87.648438 9.28125 C 87.441406 9.488281 87.238281 9.691406 87.042969 9.886719 C 87.003906 9.925781 86.957031 9.945312 86.90625 9.945312 Z M 86.90625 9.945312 " fill-opacity="1" fill-rule="nonzero"/></g><g fill="#ffffff" fill-opacity="1"><g transform="translate(84.700728, 31.538057)"><g><path d="M 1.6875 0 L 1.6875 -13.9375 L 10.09375 -13.9375 L 10.09375 -12.4375 L 3.375 -12.4375 L 3.375 -7.734375 L 9.65625 -7.734375 L 9.65625 -6.234375 L 3.375 -6.234375 L 3.375 -1.5 L 10.203125 -1.5 L 10.203125 0 Z M 1.6875 0 "/></g></g></g><g fill="#ffffff" fill-opacity="1"><g transform="translate(98.776222, 31.538057)"><g><path d="M 1.21875 0 L 1.21875 -1.21875 L 8.734375 -12.4375 L 1.140625 -12.4375 L 1.140625 -13.9375 L 10.75 -13.9375 L 10.75 -12.703125 L 3.234375 -1.5 L 10.828125 -1.5 L 10.828125 0 Z M 1.21875 0 "/></g></g></g><g fill="#ffffff" fill-opacity="1"><g transform="translate(113.368493, 31.538057)"><g><path d="M 2.640625 0.109375 C 2.304688 0.109375 2.019531 -0.0078125 1.78125 -0.25 C 1.539062 -0.488281 1.421875 -0.773438 1.421875 -1.109375 C 1.421875 -1.453125 1.539062 -1.742188 1.78125 -1.984375 C 2.019531 -2.222656 2.304688 -2.34375 2.640625 -2.34375 C 2.972656 -2.34375 3.257812 -2.222656 3.5 -1.984375 C 3.738281 -1.742188 3.859375 -1.453125 3.859375 -1.109375 C 3.859375 -0.773438 3.738281 -0.488281 3.5 -0.25 C 3.257812 -0.0078125 2.972656 0.109375 2.640625 0.109375 Z M 2.640625 0.109375 "/></g></g></g><g fill="#ffffff" fill-opacity="1"><g transform="translate(121.269861, 31.538057)"><g><path d="M 0.921875 -12.4375 L 0.921875 -13.9375 L 11.375 -13.9375 L 11.375 -12.4375 L 7 -12.4375 L 7 0 L 5.3125 0 L 5.3125 -12.4375 Z M 0.921875 -12.4375 "/></g></g></g><g fill="#ffffff" fill-opacity="1"><g transform="translate(136.188525, 31.538057)"><g><path d="M 1.6875 0 L 1.6875 -13.9375 L 6.390625 -13.9375 C 7.484375 -13.9375 8.378906 -13.75 9.078125 -13.375 C 9.773438 -13.007812 10.289062 -12.503906 10.625 -11.859375 C 10.957031 -11.210938 11.125 -10.476562 11.125 -9.65625 C 11.125 -8.726562 10.910156 -7.921875 10.484375 -7.234375 C 10.066406 -6.546875 9.414062 -6.050781 8.53125 -5.75 L 11.671875 0 L 9.71875 0 L 6.78125 -5.453125 C 6.664062 -5.441406 6.546875 -5.4375 6.421875 -5.4375 L 3.375 -5.4375 L 3.375 0 Z M 3.375 -6.96875 L 6.375 -6.96875 C 7.488281 -6.96875 8.28125 -7.207031 8.75 -7.6875 C 9.226562 -8.164062 9.46875 -8.820312 9.46875 -9.65625 C 9.46875 -10.5 9.226562 -11.171875 8.75 -11.671875 C 8.269531 -12.179688 7.46875 -12.4375 6.34375 -12.4375 L 3.375 -12.4375 Z M 3.375 -6.96875 "/></g></g></g><g fill="#ffffff" fill-opacity="1"><g transform="translate(151.052784, 31.538057)"><g><path d="M 2.265625 0 L 0.484375 0 L 5.609375 -13.9375 L 7.34375 -13.9375 L 12.46875 0 L 10.6875 0 L 9.296875 -3.953125 L 3.65625 -3.953125 Z M 4.1875 -5.4375 L 8.765625 -5.4375 L 6.53125 -11.734375 L 6.421875 -11.734375 Z M 4.1875 -5.4375 "/></g></g></g><g fill="#ffffff" fill-opacity="1"><g transform="translate(166.62422, 31.538057)"><g><path d="M 2.265625 -13.9375 L 6.390625 -2.203125 L 6.5625 -2.203125 L 10.6875 -13.9375 L 12.46875 -13.9375 L 7.34375 0 L 5.609375 0 L 0.484375 -13.9375 Z M 2.265625 -13.9375 "/></g></g></g><g fill="#ffffff" fill-opacity="1"><g transform="translate(182.195655, 31.538057)"><g><path d="M 1.6875 0 L 1.6875 -13.9375 L 10.09375 -13.9375 L 10.09375 -12.4375 L 3.375 -12.4375 L 3.375 -7.734375 L 9.65625 -7.734375 L 9.65625 -6.234375 L 3.375 -6.234375 L 3.375 -1.5 L 10.203125 -1.5 L 10.203125 0 Z M 1.6875 0 "/></g></g></g><g fill="#ffffff" fill-opacity="1"><g transform="translate(196.271151, 31.538057)"><g><path d="M 1.6875 0 L 1.6875 -13.9375 L 3.375 -13.9375 L 3.375 -1.5 L 9.84375 -1.5 L 9.84375 0 Z M 1.6875 0 "/></g></g></g></svg>